<mxfile host="app.diagrams.net" modified="2024-04-16T20:24:30.737Z" agent="Mozilla/5.0 (Windows NT 10.0; Win64; x64; rv:124.0) Gecko/20100101 Firefox/124.0" etag="-UpZQJQ2H9y3I0JlopaU" version="24.2.5" type="device">
  <diagram name="Página-1" id="5ahahIFYZfCkOHtIPVc9">
    <mxGraphModel dx="2893" dy="1745" grid="1" gridSize="10" guides="1" tooltips="1" connect="1" arrows="1" fold="1" page="1" pageScale="1" pageWidth="1169" pageHeight="827" math="0" shadow="0">
      <root>
        <mxCell id="0" />
        <mxCell id="1" parent="0" />
        <mxCell id="KNgi5a2uVoSwm_4hjrNd-1" value="" style="ellipse;whiteSpace=wrap;html=1;aspect=fixed;" vertex="1" parent="1">
          <mxGeometry x="450" y="-420" width="320" height="320" as="geometry" />
        </mxCell>
        <mxCell id="KNgi5a2uVoSwm_4hjrNd-7" value="" style="ellipse;whiteSpace=wrap;html=1;aspect=fixed;fillColor=#d0cee2;strokeColor=#56517e;" vertex="1" parent="1">
          <mxGeometry x="542.5" y="-327.5" width="135" height="135" as="geometry" />
        </mxCell>
        <mxCell id="KNgi5a2uVoSwm_4hjrNd-9" value="" style="endArrow=none;html=1;rounded=0;exitX=0;exitY=0.5;exitDx=0;exitDy=0;entryX=0;entryY=0.5;entryDx=0;entryDy=0;" edge="1" parent="1" source="KNgi5a2uVoSwm_4hjrNd-7" target="KNgi5a2uVoSwm_4hjrNd-1">
          <mxGeometry width="50" height="50" relative="1" as="geometry">
            <mxPoint x="590" y="-230" as="sourcePoint" />
            <mxPoint x="640" y="-280" as="targetPoint" />
          </mxGeometry>
        </mxCell>
        <mxCell id="KNgi5a2uVoSwm_4hjrNd-10" value="" style="endArrow=none;html=1;rounded=0;exitX=0.5;exitY=1;exitDx=0;exitDy=0;entryX=0.5;entryY=1;entryDx=0;entryDy=0;" edge="1" parent="1" source="KNgi5a2uVoSwm_4hjrNd-7" target="KNgi5a2uVoSwm_4hjrNd-1">
          <mxGeometry width="50" height="50" relative="1" as="geometry">
            <mxPoint x="590" y="-230" as="sourcePoint" />
            <mxPoint x="640" y="-280" as="targetPoint" />
          </mxGeometry>
        </mxCell>
        <mxCell id="KNgi5a2uVoSwm_4hjrNd-11" value="" style="endArrow=none;html=1;rounded=0;entryX=1;entryY=0.5;entryDx=0;entryDy=0;exitX=1;exitY=0.5;exitDx=0;exitDy=0;" edge="1" parent="1" source="KNgi5a2uVoSwm_4hjrNd-1" target="KNgi5a2uVoSwm_4hjrNd-7">
          <mxGeometry width="50" height="50" relative="1" as="geometry">
            <mxPoint x="590" y="-230" as="sourcePoint" />
            <mxPoint x="640" y="-280" as="targetPoint" />
          </mxGeometry>
        </mxCell>
        <mxCell id="KNgi5a2uVoSwm_4hjrNd-12" value="" style="endArrow=none;html=1;rounded=0;entryX=0.5;entryY=0;entryDx=0;entryDy=0;" edge="1" parent="1" source="KNgi5a2uVoSwm_4hjrNd-1" target="KNgi5a2uVoSwm_4hjrNd-7">
          <mxGeometry width="50" height="50" relative="1" as="geometry">
            <mxPoint x="590" y="-230" as="sourcePoint" />
            <mxPoint x="640" y="-280" as="targetPoint" />
          </mxGeometry>
        </mxCell>
        <mxCell id="KNgi5a2uVoSwm_4hjrNd-29" style="edgeStyle=none;rounded=0;orthogonalLoop=1;jettySize=auto;html=1;" edge="1" parent="1" source="KNgi5a2uVoSwm_4hjrNd-16" target="KNgi5a2uVoSwm_4hjrNd-7">
          <mxGeometry relative="1" as="geometry" />
        </mxCell>
        <mxCell id="KNgi5a2uVoSwm_4hjrNd-16" value="" style="ellipse;whiteSpace=wrap;html=1;aspect=fixed;rotation=-105;fillColor=#b0e3e6;strokeColor=#0e8088;direction=west;" vertex="1" parent="1">
          <mxGeometry x="570" y="-300" width="80" height="80" as="geometry" />
        </mxCell>
        <mxCell id="KNgi5a2uVoSwm_4hjrNd-14" value="x" style="endArrow=oval;html=1;rounded=0;entryX=0.5;entryY=0.5;entryDx=0;entryDy=0;entryPerimeter=0;exitX=0;exitY=1;exitDx=0;exitDy=0;endFill=1;startArrow=classic;startFill=1;fillColor=#a20025;strokeColor=#6F0000;" edge="1" parent="1" source="KNgi5a2uVoSwm_4hjrNd-16" target="KNgi5a2uVoSwm_4hjrNd-7">
          <mxGeometry width="50" height="50" relative="1" as="geometry">
            <mxPoint x="530" y="-210" as="sourcePoint" />
            <mxPoint x="580" y="-260" as="targetPoint" />
          </mxGeometry>
        </mxCell>
        <mxCell id="KNgi5a2uVoSwm_4hjrNd-15" value="y" style="endArrow=oval;html=1;rounded=0;exitX=0;exitY=0;exitDx=0;exitDy=0;endFill=1;startArrow=classic;startFill=1;fillColor=#60a917;strokeColor=#2D7600;" edge="1" parent="1" source="KNgi5a2uVoSwm_4hjrNd-16">
          <mxGeometry width="50" height="50" relative="1" as="geometry">
            <mxPoint x="572" y="-202" as="sourcePoint" />
            <mxPoint x="610" y="-260" as="targetPoint" />
          </mxGeometry>
        </mxCell>
        <mxCell id="KNgi5a2uVoSwm_4hjrNd-17" value="1" style="text;html=1;align=center;verticalAlign=middle;resizable=0;points=[];autosize=1;strokeColor=none;fillColor=none;" vertex="1" parent="1">
          <mxGeometry x="680" y="-357.5" width="30" height="30" as="geometry" />
        </mxCell>
        <mxCell id="KNgi5a2uVoSwm_4hjrNd-18" value="2" style="text;html=1;align=center;verticalAlign=middle;resizable=0;points=[];autosize=1;strokeColor=none;fillColor=none;" vertex="1" parent="1">
          <mxGeometry x="680" y="-192.5" width="30" height="30" as="geometry" />
        </mxCell>
        <mxCell id="KNgi5a2uVoSwm_4hjrNd-19" value="3" style="text;html=1;align=center;verticalAlign=middle;resizable=0;points=[];autosize=1;strokeColor=none;fillColor=none;" vertex="1" parent="1">
          <mxGeometry x="512.5" y="-192.5" width="30" height="30" as="geometry" />
        </mxCell>
        <mxCell id="KNgi5a2uVoSwm_4hjrNd-20" value="4" style="text;html=1;align=center;verticalAlign=middle;resizable=0;points=[];autosize=1;strokeColor=none;fillColor=none;" vertex="1" parent="1">
          <mxGeometry x="512.5" y="-357.5" width="30" height="30" as="geometry" />
        </mxCell>
        <mxCell id="KNgi5a2uVoSwm_4hjrNd-21" value="" style="endArrow=none;html=1;rounded=0;entryX=0.5;entryY=1;entryDx=0;entryDy=0;exitX=0.5;exitY=0;exitDx=0;exitDy=0;fillColor=#1ba1e2;strokeColor=#006EAF;" edge="1" parent="1" source="KNgi5a2uVoSwm_4hjrNd-16" target="KNgi5a2uVoSwm_4hjrNd-16">
          <mxGeometry width="50" height="50" relative="1" as="geometry">
            <mxPoint x="640" y="-230" as="sourcePoint" />
            <mxPoint x="690" y="-280" as="targetPoint" />
          </mxGeometry>
        </mxCell>
        <mxCell id="KNgi5a2uVoSwm_4hjrNd-24" value="z" style="edgeStyle=none;rounded=0;orthogonalLoop=1;jettySize=auto;html=1;exitX=0.5;exitY=0;exitDx=0;exitDy=0;" edge="1" parent="1" source="KNgi5a2uVoSwm_4hjrNd-22">
          <mxGeometry relative="1" as="geometry">
            <mxPoint x="880" y="110" as="targetPoint" />
          </mxGeometry>
        </mxCell>
        <mxCell id="KNgi5a2uVoSwm_4hjrNd-25" value="x" style="edgeStyle=none;rounded=0;orthogonalLoop=1;jettySize=auto;html=1;exitX=0.5;exitY=0;exitDx=0;exitDy=0;fillColor=#a20025;strokeColor=#6F0000;" edge="1" parent="1" source="KNgi5a2uVoSwm_4hjrNd-22">
          <mxGeometry relative="1" as="geometry">
            <mxPoint x="900" y="310" as="targetPoint" />
          </mxGeometry>
        </mxCell>
        <mxCell id="KNgi5a2uVoSwm_4hjrNd-26" value="y" style="edgeStyle=none;rounded=0;orthogonalLoop=1;jettySize=auto;html=1;exitX=0.5;exitY=0;exitDx=0;exitDy=0;fillColor=#60a917;strokeColor=#2D7600;" edge="1" parent="1" source="KNgi5a2uVoSwm_4hjrNd-22">
          <mxGeometry relative="1" as="geometry">
            <mxPoint x="910" y="300" as="targetPoint" />
          </mxGeometry>
        </mxCell>
        <mxCell id="KNgi5a2uVoSwm_4hjrNd-22" value="" style="rounded=0;whiteSpace=wrap;html=1;fillColor=#1ba1e2;fontColor=#ffffff;strokeColor=#006EAF;rotation=0;" vertex="1" parent="1">
          <mxGeometry x="630" y="220" width="270" height="60" as="geometry" />
        </mxCell>
        <mxCell id="KNgi5a2uVoSwm_4hjrNd-39" value="x&amp;gt;y" style="edgeStyle=none;rounded=0;orthogonalLoop=1;jettySize=auto;html=1;exitX=1;exitY=0;exitDx=0;exitDy=0;entryX=0;entryY=0.5;entryDx=0;entryDy=0;" edge="1" parent="1" source="KNgi5a2uVoSwm_4hjrNd-34" target="KNgi5a2uVoSwm_4hjrNd-35">
          <mxGeometry relative="1" as="geometry" />
        </mxCell>
        <mxCell id="KNgi5a2uVoSwm_4hjrNd-40" value="y&amp;gt;x" style="edgeStyle=none;rounded=0;orthogonalLoop=1;jettySize=auto;html=1;exitX=1;exitY=1;exitDx=0;exitDy=0;entryX=0;entryY=0.5;entryDx=0;entryDy=0;" edge="1" parent="1" source="KNgi5a2uVoSwm_4hjrNd-34" target="KNgi5a2uVoSwm_4hjrNd-36">
          <mxGeometry relative="1" as="geometry" />
        </mxCell>
        <mxCell id="KNgi5a2uVoSwm_4hjrNd-43" value="x aprox y" style="edgeStyle=none;rounded=0;orthogonalLoop=1;jettySize=auto;html=1;" edge="1" parent="1" source="KNgi5a2uVoSwm_4hjrNd-34" target="KNgi5a2uVoSwm_4hjrNd-42">
          <mxGeometry relative="1" as="geometry" />
        </mxCell>
        <mxCell id="KNgi5a2uVoSwm_4hjrNd-34" value="Apuntando" style="ellipse;whiteSpace=wrap;html=1;aspect=fixed;" vertex="1" parent="1">
          <mxGeometry x="-400" y="-80" width="80" height="80" as="geometry" />
        </mxCell>
        <mxCell id="KNgi5a2uVoSwm_4hjrNd-45" style="edgeStyle=none;rounded=0;orthogonalLoop=1;jettySize=auto;html=1;exitX=0.5;exitY=0;exitDx=0;exitDy=0;entryX=0.5;entryY=0;entryDx=0;entryDy=0;" edge="1" parent="1" source="KNgi5a2uVoSwm_4hjrNd-35" target="KNgi5a2uVoSwm_4hjrNd-34">
          <mxGeometry relative="1" as="geometry">
            <Array as="points">
              <mxPoint x="-360" y="-230" />
            </Array>
          </mxGeometry>
        </mxCell>
        <mxCell id="KNgi5a2uVoSwm_4hjrNd-58" value="no puede más" style="edgeStyle=none;rounded=0;orthogonalLoop=1;jettySize=auto;html=1;exitX=1;exitY=0.5;exitDx=0;exitDy=0;" edge="1" parent="1" source="KNgi5a2uVoSwm_4hjrNd-35">
          <mxGeometry relative="1" as="geometry">
            <mxPoint x="30" y="-190" as="targetPoint" />
          </mxGeometry>
        </mxCell>
        <mxCell id="KNgi5a2uVoSwm_4hjrNd-35" value="RotarAX" style="ellipse;whiteSpace=wrap;html=1;aspect=fixed;" vertex="1" parent="1">
          <mxGeometry x="-170" y="-230" width="80" height="80" as="geometry" />
        </mxCell>
        <mxCell id="KNgi5a2uVoSwm_4hjrNd-46" style="edgeStyle=none;rounded=0;orthogonalLoop=1;jettySize=auto;html=1;exitX=0.5;exitY=1;exitDx=0;exitDy=0;entryX=0.5;entryY=1;entryDx=0;entryDy=0;" edge="1" parent="1" source="KNgi5a2uVoSwm_4hjrNd-36" target="KNgi5a2uVoSwm_4hjrNd-34">
          <mxGeometry relative="1" as="geometry">
            <Array as="points">
              <mxPoint x="-360" y="150" />
            </Array>
          </mxGeometry>
        </mxCell>
        <mxCell id="KNgi5a2uVoSwm_4hjrNd-57" value="no puede más" style="edgeStyle=none;rounded=0;orthogonalLoop=1;jettySize=auto;html=1;exitX=1;exitY=1;exitDx=0;exitDy=0;entryX=0;entryY=0;entryDx=0;entryDy=0;" edge="1" parent="1" source="KNgi5a2uVoSwm_4hjrNd-36" target="KNgi5a2uVoSwm_4hjrNd-53">
          <mxGeometry relative="1" as="geometry" />
        </mxCell>
        <mxCell id="KNgi5a2uVoSwm_4hjrNd-36" value="RotarAY" style="ellipse;whiteSpace=wrap;html=1;aspect=fixed;" vertex="1" parent="1">
          <mxGeometry x="-170" y="70" width="80" height="80" as="geometry" />
        </mxCell>
        <mxCell id="KNgi5a2uVoSwm_4hjrNd-48" value="z&amp;gt;x,y" style="edgeStyle=none;rounded=0;orthogonalLoop=1;jettySize=auto;html=1;" edge="1" parent="1" source="KNgi5a2uVoSwm_4hjrNd-42" target="KNgi5a2uVoSwm_4hjrNd-47">
          <mxGeometry relative="1" as="geometry" />
        </mxCell>
        <mxCell id="KNgi5a2uVoSwm_4hjrNd-50" value="x,y&amp;gt;z" style="edgeStyle=none;rounded=0;orthogonalLoop=1;jettySize=auto;html=1;" edge="1" parent="1" source="KNgi5a2uVoSwm_4hjrNd-42" target="KNgi5a2uVoSwm_4hjrNd-49">
          <mxGeometry relative="1" as="geometry" />
        </mxCell>
        <mxCell id="KNgi5a2uVoSwm_4hjrNd-42" value="Apuntado Polar" style="ellipse;whiteSpace=wrap;html=1;aspect=fixed;" vertex="1" parent="1">
          <mxGeometry x="-170" y="-80" width="80" height="80" as="geometry" />
        </mxCell>
        <mxCell id="KNgi5a2uVoSwm_4hjrNd-52" value="timer" style="edgeStyle=none;rounded=0;orthogonalLoop=1;jettySize=auto;html=1;exitX=0.5;exitY=0;exitDx=0;exitDy=0;entryX=0;entryY=0.5;entryDx=0;entryDy=0;" edge="1" parent="1" source="KNgi5a2uVoSwm_4hjrNd-47" target="KNgi5a2uVoSwm_4hjrNd-34">
          <mxGeometry relative="1" as="geometry">
            <Array as="points">
              <mxPoint x="250" y="-360" />
              <mxPoint x="-400" y="-360" />
            </Array>
          </mxGeometry>
        </mxCell>
        <mxCell id="KNgi5a2uVoSwm_4hjrNd-47" value="Espera" style="ellipse;whiteSpace=wrap;html=1;" vertex="1" parent="1">
          <mxGeometry x="210" y="-80" width="80" height="80" as="geometry" />
        </mxCell>
        <mxCell id="KNgi5a2uVoSwm_4hjrNd-51" style="edgeStyle=none;rounded=0;orthogonalLoop=1;jettySize=auto;html=1;exitX=1;exitY=0.5;exitDx=0;exitDy=0;entryX=0;entryY=1;entryDx=0;entryDy=0;" edge="1" parent="1" source="KNgi5a2uVoSwm_4hjrNd-49" target="KNgi5a2uVoSwm_4hjrNd-47">
          <mxGeometry relative="1" as="geometry" />
        </mxCell>
        <mxCell id="KNgi5a2uVoSwm_4hjrNd-49" value="Inclinacion 45º" style="ellipse;whiteSpace=wrap;html=1;" vertex="1" parent="1">
          <mxGeometry x="10" y="30" width="80" height="80" as="geometry" />
        </mxCell>
        <mxCell id="KNgi5a2uVoSwm_4hjrNd-56" value="x,y&amp;gt;z" style="edgeStyle=none;rounded=0;orthogonalLoop=1;jettySize=auto;html=1;exitX=0.5;exitY=1;exitDx=0;exitDy=0;entryX=0;entryY=0.5;entryDx=0;entryDy=0;" edge="1" parent="1" source="KNgi5a2uVoSwm_4hjrNd-53" target="KNgi5a2uVoSwm_4hjrNd-55">
          <mxGeometry relative="1" as="geometry" />
        </mxCell>
        <mxCell id="KNgi5a2uVoSwm_4hjrNd-60" value="z&amp;gt;x,y" style="edgeStyle=none;rounded=0;orthogonalLoop=1;jettySize=auto;html=1;exitX=1;exitY=0;exitDx=0;exitDy=0;entryX=0.5;entryY=1;entryDx=0;entryDy=0;" edge="1" parent="1" source="KNgi5a2uVoSwm_4hjrNd-53" target="KNgi5a2uVoSwm_4hjrNd-47">
          <mxGeometry relative="1" as="geometry" />
        </mxCell>
        <mxCell id="KNgi5a2uVoSwm_4hjrNd-53" value="Invertir" style="ellipse;whiteSpace=wrap;html=1;" vertex="1" parent="1">
          <mxGeometry x="10" y="200" width="80" height="80" as="geometry" />
        </mxCell>
        <mxCell id="KNgi5a2uVoSwm_4hjrNd-61" style="edgeStyle=none;rounded=0;orthogonalLoop=1;jettySize=auto;html=1;exitX=0.5;exitY=0;exitDx=0;exitDy=0;entryX=1;entryY=1;entryDx=0;entryDy=0;" edge="1" parent="1" source="KNgi5a2uVoSwm_4hjrNd-55" target="KNgi5a2uVoSwm_4hjrNd-47">
          <mxGeometry relative="1" as="geometry" />
        </mxCell>
        <mxCell id="KNgi5a2uVoSwm_4hjrNd-55" value="Inclinacion 135º" style="ellipse;whiteSpace=wrap;html=1;" vertex="1" parent="1">
          <mxGeometry x="160" y="310" width="80" height="80" as="geometry" />
        </mxCell>
        <mxCell id="KNgi5a2uVoSwm_4hjrNd-59" value="A estado Invertir" style="text;html=1;align=center;verticalAlign=middle;resizable=0;points=[];autosize=1;strokeColor=none;fillColor=none;" vertex="1" parent="1">
          <mxGeometry x="30" y="-205" width="110" height="30" as="geometry" />
        </mxCell>
        <mxCell id="KNgi5a2uVoSwm_4hjrNd-62" value="" style="ellipse;whiteSpace=wrap;html=1;aspect=fixed;fillColor=#fff2cc;gradientColor=#ffd966;strokeColor=#d6b656;" vertex="1" parent="1">
          <mxGeometry x="512.5" y="-70" width="80" height="80" as="geometry" />
        </mxCell>
        <mxCell id="KNgi5a2uVoSwm_4hjrNd-64" style="edgeStyle=none;rounded=0;orthogonalLoop=1;jettySize=auto;html=1;exitX=1;exitY=0.5;exitDx=0;exitDy=0;entryX=0;entryY=0.5;entryDx=0;entryDy=0;" edge="1" parent="1" source="KNgi5a2uVoSwm_4hjrNd-63" target="KNgi5a2uVoSwm_4hjrNd-34">
          <mxGeometry relative="1" as="geometry" />
        </mxCell>
        <mxCell id="KNgi5a2uVoSwm_4hjrNd-63" value="Inicio" style="ellipse;whiteSpace=wrap;html=1;aspect=fixed;" vertex="1" parent="1">
          <mxGeometry x="-570" y="-80" width="80" height="80" as="geometry" />
        </mxCell>
      </root>
    </mxGraphModel>
  </diagram>
</mxfile>
